Coordinates
version=1
nRows=12
nColumns=24
inDegrees=yes

Units are S.I. units (second, meters, Newtons, ...)
Angles are in degrees.

endheader
time	pelvis_tilt	pelvis_list	pelvis_rotation	pelvis_tx	pelvis_ty	pelvis_tz	hip_flexion_r	hip_adduction_r	hip_rotation_r	knee_angle_r	ankle_angle_r	subtalar_angle_r	mtp_angle_r	hip_flexion_l	hip_adduction_l	hip_rotation_l	knee_angle_l	ankle_angle_l	subtalar_angle_l	mtp_angle_l	lumbar_extension	lumbar_bending	lumbar_rotation
      3.39500000	    -11.27539986	      4.54291163	      1.38841183	     -2.03976539	     -0.01941552	     -0.72497853	     17.64045759	     -6.51801324	     -3.66216452	    -62.55852964	    -25.90511334	    -20.27520154	     -0.71740318	     28.06060521	      5.35432479	     -9.20383697	    -23.42436809	      1.91823206	     -7.35057902	      3.19412687	      7.39240475	     -6.59898849	     -2.03927338
      3.40000000	    -11.29964922	      4.46428858	      1.41590352	     -2.03428481	     -0.01854633	     -0.72556479	     18.62730327	     -6.38359091	     -3.57997813	    -63.62853843	    -25.15364444	    -20.19456873	     -0.52710823	     27.55695070	      5.34412335	     -9.14584357	    -23.12893614	      2.07032074	     -7.30066692	      3.67530399	      7.38444058	     -6.49993848	     -2.21412775
      3.40500000	    -11.30487475	      4.40998860	      1.44445240	     -2.02879511	     -0.01762511	     -0.72614745	     19.57502727	     -6.27789081	     -3.49667690	    -64.59689614	    -24.28703047	    -20.03655504	     -0.09377625	     27.01411892	      5.36019351	     -9.10365410	    -22.80784365	      2.26115825	     -7.18950698	      3.90263437	      7.36117208	     -6.42564028	     -2.42283801
      3.41000000	    -11.38252823	      4.34714314	      1.40531286	     -2.02335848	     -0.01676825	     -0.72670465	     20.61317112	     -6.13750005	     -3.32149651	    -65.46706230	    -23.40917217	    -19.82361355	      0.93463861	     26.53557556	      5.35455594	     -9.05057950	    -22.44579067	      2.37561628	     -7.22539691	      4.16760746	      7.42246714	     -6.31585405	     -2.50093823
      3.41500000	    -11.36490481	      4.23519081	      1.45522859	     -2.01790500	     -0.01579740	     -0.72733200	     21.48846367	     -5.98128164	     -3.28768517	    -66.22529985	    -22.31539197	    -19.45299184	      1.51784483	     25.96663618	      5.32342019	     -8.98090857	    -22.12134562	      2.62452587	     -7.06920323	      4.25113070	      7.37312045	     -6.17294117	     -2.71804611
      3.42000000	    -11.38545931	      4.15062825	      1.44323626	     -2.01246836	     -0.01486623	     -0.72789658	     22.41703109	     -5.82920514	     -3.17679168	    -66.91338371	    -21.18946705	    -19.03391024	      2.21760721	     25.41930464	      5.30242743	     -8.92700018	    -21.75636045	      2.80723691	     -7.00123543	      4.26794944	      7.37793792	     -6.04054488	     -2.84090006
      3.42500000	    -11.43474589	      4.07263641	      1.42874469	     -2.00701116	     -0.01395005	     -0.72855271	     23.34989478	     -5.69812408	     -3.05486043	    -67.45089088	    -20.30012014	    -18.78042777	      3.95071334	     24.88064957	      5.31260115	     -8.80572540	    -21.35157183	      2.97283693	     -7.04523580	      4.06048810	      7.42346686	     -5.90006236	     -2.94412619
      3.43000000	    -11.40433859	      3.98099217	      1.44232464	     -2.00156858	     -0.01299354	     -0.72912748	     24.18343880	     -5.55670301	     -3.01281618	    -67.96402271	    -19.16869356	    -18.33736820	      4.38587723	     24.26269488	      5.29140216	     -8.74198961	    -20.96055501	      3.20545446	     -6.90638876	      4.08098699	      7.37341527	     -5.76148063	     -3.09713297
      3.43500000	    -11.39341312	      3.91094977	      1.43238177	     -1.99610527	     -0.01204866	     -0.72965732	     25.02290223	     -5.42290381	     -2.93041547	    -68.38728162	    -18.06637617	    -17.89164688	      4.90753894	     23.64901079	      5.28703955	     -8.69897510	    -20.53201132	      3.34332683	     -6.85360772	      4.03295841	      7.35513392	     -5.64064336	     -3.21478401
      3.44000000	    -11.36991403	      3.85236125	      1.43077070	     -1.99061081	     -0.01113570	     -0.73023082	     25.83315137	     -5.32143378	     -2.87844358	    -68.73182723	    -17.06662658	    -17.49004492	      5.43536020	     23.00571135	      5.30547817	     -8.62701744	    -20.07916227	      3.51212098	     -6.81315153	      3.97542335	      7.33014427	     -5.52304655	     -3.33325816
      3.44500000	    -11.33205431	      3.80702030	      1.43164707	     -1.98509076	     -0.01020375	     -0.73077810	     26.59913034	     -5.23225228	     -2.82368094	    -68.97900815	    -16.13063989	    -17.13690827	      6.00606018	     22.33505842	      5.33502183	     -8.57214816	    -19.60344301	      3.62375332	     -6.77520657	      3.87241317	      7.29508497	     -5.42478060	     -3.45736779
      3.45000000	    -11.25382580	      3.79707350	      1.40156969	     -1.97956795	     -0.00927131	     -0.73135647	     27.31172610	     -5.18125971	     -2.73974254	    -69.13079170	    -15.40209502	    -16.93399006	      7.00811700	     21.59291667	      5.41137186	     -8.47151167	    -19.08189652	      3.74623852	     -6.84293160	      3.57196965	      7.21992735	     -5.34237407	     -3.52222714
